<svg id="Livello_1" data-name="Livello 1" xmlns="http://www.w3.org/2000/svg" xmlns:xlink="http://www.w3.org/1999/xlink" viewBox="0 0 134.93 143.13">
  <defs>
    <style>
      .cls-1 {
        fill: none;
      }

      .cls-2 {
        clip-path: url(#clip-path);
      }

      .cls-3 {
        opacity: 0;
      }
		#BIG{
			-ms-transform-origin:center;
			-webkit-transform-origin:center;
			transform-origin:center;
			-webkit-animation:rotateCDJ 5s linear infinite;
			-o-animation:rotateCDJ 5s linear infinite;
			animation:rotateCDJ 5s linear infinite;
		}
		#SMALL{
			-ms-transform-origin:center;
			-webkit-transform-origin:center;
			transform-origin:center;
			-webkit-animation:rotateCDJ 8s linear infinite;
			-o-animation:rotateCDJ 8s linear infinite;
			animation:rotateCDJ 8s linear infinite;
		}
		@keyframes rotateCDJ{
			0%{
				-webkit-transform: rotateZ(0deg);
				-moz-transform: rotateZ(0deg);
				-ms-transform: rotateZ(0deg);
				-o-transform: rotateZ(0deg);
				transform: rotateZ(0deg);
			}
			100%{
				-webkit-transform: rotateZ(360deg);
				-moz-transform: rotateZ(360deg);
				-ms-transform: rotateZ(360deg);
				-o-transform: rotateZ(360deg);
				transform: rotateZ(360deg);
			}
		}
    </style>
    <clipPath id="clip-path" transform="translate(-238 -325)">
      <rect class="cls-1" x="238" y="325" width="134.88" height="144"/>
    </clipPath>
  </defs>
  <title>SVG-ALBY-3</title>
  <g class="cls-2">
    <path d="M359,468.13H252a14,14,0,0,1-14-14V339a14,14,0,0,1,14-14H359a14,14,0,0,1,14,14v115.2a14,14,0,0,1-14,14ZM252,328.2A10.78,10.78,0,0,0,241.2,339v115.2A10.78,10.78,0,0,0,252,464.93H359a10.78,10.78,0,0,0,10.76-10.77V339A10.78,10.78,0,0,0,359,328.2ZM356.23,457.27h-17.9a1.6,1.6,0,0,1-1.6-1.6v-9.34a1.6,1.6,0,0,1,1.6-1.6h17.9a1.6,1.6,0,0,1,1.6,1.6v9.34a1.6,1.6,0,0,1-1.6,1.6Zm-16.3-3.2h14.7v-6.13h-14.7Zm-12.67,3.2h-17.9a1.6,1.6,0,0,1-1.6-1.6v-9.34a1.6,1.6,0,0,1,1.6-1.6h17.9a1.6,1.6,0,0,1,1.6,1.6v9.34a1.6,1.6,0,0,1-1.6,1.6Zm-16.3-3.2h14.7v-6.13H311Zm-12.66,3.2H280.4a1.6,1.6,0,0,1-1.6-1.6v-9.34a1.6,1.6,0,0,1,1.6-1.6h17.9a1.6,1.6,0,0,1,1.6,1.6v9.34a1.6,1.6,0,0,1-1.6,1.6Zm-16.3-3.2h14.7v-6.13H282Zm-12.67,3.2h-17.9a1.6,1.6,0,0,1-1.6-1.6v-9.34a1.6,1.6,0,0,1,1.6-1.6h17.9a1.6,1.6,0,0,1,1.6,1.6v9.34a1.6,1.6,0,0,1-1.6,1.6Zm-16.3-3.2h14.7v-6.13H253Zm94.25-12.2a6.3,6.3,0,1,1,6.3-6.3,6.31,6.31,0,0,1-6.3,6.3Zm0-9.4a3.1,3.1,0,1,0,3.1,3.1,3.1,3.1,0,0,0-3.1-3.1Zm-29,9.4a6.3,6.3,0,1,1,6.3-6.3,6.31,6.31,0,0,1-6.3,6.3Zm0-9.4a3.1,3.1,0,1,0,3.1,3.1,3.1,3.1,0,0,0-3.1-3.1Zm-29,9.4a6.3,6.3,0,1,1,6.3-6.3,6.31,6.31,0,0,1-6.3,6.3Zm0-9.4a3.1,3.1,0,1,0,3.1,3.1,3.1,3.1,0,0,0-3.1-3.1Zm-29,9.4a6.3,6.3,0,1,1,6.3-6.3,6.31,6.31,0,0,1-6.3,6.3Zm0-9.4a3.1,3.1,0,1,0,3.1,3.1,3.1,3.1,0,0,0-3.1-3.1Zm55.32-10a42.13,42.13,0,1,1,42.13-42.13,42.18,42.18,0,0,1-42.13,42.13Zm0-81.07a38.93,38.93,0,1,0,38.93,38.93,39,39,0,0,0-38.93-38.93Zm-58.77,81.07a1.6,1.6,0,0,1-1.6-1.6V373.48a7.12,7.12,0,0,1-5.5-6.92v-.1a7.12,7.12,0,0,1,5.5-6.92V339.77a1.6,1.6,0,1,1,3.2,0v19.77a7.12,7.12,0,0,1,5.5,6.92v.1a7.12,7.12,0,0,1-5.5,6.92v47.36a1.6,1.6,0,0,1-1.6,1.6Zm0-59.87a3.9,3.9,0,0,0-3.9,3.9v.1a3.9,3.9,0,0,0,7.8,0v-.1a3.9,3.9,0,0,0-3.9-3.9Zm58.77,33.17a15.43,15.43,0,1,1,15.43-15.43,15.45,15.45,0,0,1-15.43,15.43Zm0-27.66a12.23,12.23,0,1,0,12.23,12.23,12.24,12.24,0,0,0-12.23-12.23Zm0,0" transform="translate(-238 -325)"/>
  </g>
  <g id="BIG">
    <rect class="cls-3" x="42.98" y="20.31" width="70" height="70"/>
    <path id="big-circle" d="M314.44,415.31c-18.45,0-33.45-15.7-33.45-35s15-35,33.45-35a1.62,1.62,0,0,1,0,3.23c-16.74,0-30.37,14.25-30.37,31.77s13.62,31.77,30.37,31.77a1.62,1.62,0,0,1,0,3.23Z" transform="translate(-238 -325)"/>
  </g>
  <g id="SMALL">
    <rect class="cls-1" x="53.98" y="31.3" width="48" height="48"/>
    <path id="little-circle" d="M314.4,404.3c-12.36,0-22.41-10.76-22.41-24s10.06-24,22.41-24a1.7,1.7,0,0,1,0,3.4c-10.61,0-19.24,9.24-19.24,20.6s8.63,20.61,19.24,20.61a1.7,1.7,0,0,1,0,3.39Z" transform="translate(-238 -325)"/>
  </g>
</svg>
